G04 #@! TF.GenerationSoftware,KiCad,Pcbnew,5.1.10-88a1d61d58~90~ubuntu20.04.1*
G04 #@! TF.CreationDate,2022-11-07T14:46:06+00:00*
G04 #@! TF.ProjectId,ROM104,524f4d31-3034-42e6-9b69-6361645f7063,1.0*
G04 #@! TF.SameCoordinates,Original*
G04 #@! TF.FileFunction,Soldermask,Bot*
G04 #@! TF.FilePolarity,Negative*
%FSLAX46Y46*%
G04 Gerber Fmt 4.6, Leading zero omitted, Abs format (unit mm)*
G04 Created by KiCad (PCBNEW 5.1.10-88a1d61d58~90~ubuntu20.04.1) date 2022-11-07 14:46:06*
%MOMM*%
%LPD*%
G01*
G04 APERTURE LIST*
%ADD10C,2.500000*%
%ADD11R,2.500000X2.500000*%
%ADD12C,1.524000*%
%ADD13O,1.600000X1.600000*%
%ADD14C,1.600000*%
%ADD15C,1.800000*%
%ADD16R,1.800000X1.800000*%
%ADD17R,1.600000X1.600000*%
%ADD18C,0.100000*%
%ADD19O,2.400000X1.600000*%
%ADD20R,2.400000X1.600000*%
%ADD21O,1.600000X2.400000*%
%ADD22R,1.600000X2.400000*%
%ADD23C,5.600000*%
%ADD24C,3.600000*%
%ADD25O,1.700000X1.700000*%
%ADD26R,1.700000X1.700000*%
%ADD27C,2.000000*%
G04 APERTURE END LIST*
D10*
X58100000Y-90654000D03*
X65720000Y-90654000D03*
X58100000Y-83034000D03*
X58100000Y-72874000D03*
X65720000Y-72874000D03*
X114320000Y-72874000D03*
X106700000Y-72874000D03*
X106700000Y-83034000D03*
X114320000Y-90654000D03*
X106700000Y-90654000D03*
X115500000Y-94337000D03*
X110500000Y-94337000D03*
D11*
X105500000Y-94337000D03*
D10*
X99300000Y-94337000D03*
X94300000Y-94337000D03*
D11*
X89300000Y-94337000D03*
D10*
X83100000Y-94337000D03*
X78100000Y-94337000D03*
D11*
X73100000Y-94337000D03*
D10*
X66925000Y-94337000D03*
X61925000Y-94337000D03*
D11*
X56925000Y-94337000D03*
D10*
X50700000Y-94337000D03*
X45700000Y-94337000D03*
D11*
X40700000Y-94337000D03*
D10*
X34500000Y-94337000D03*
X29500000Y-94337000D03*
D11*
X24500000Y-94337000D03*
D10*
X90500000Y-90654000D03*
X98120000Y-90654000D03*
X90500000Y-83034000D03*
X90500000Y-72874000D03*
X98120000Y-72874000D03*
X74300000Y-90600000D03*
X81920000Y-90600000D03*
X74300000Y-82980000D03*
X74300000Y-72820000D03*
X81920000Y-72820000D03*
X41900000Y-90654000D03*
X49520000Y-90654000D03*
X41900000Y-83034000D03*
X41900000Y-72874000D03*
X49520000Y-72874000D03*
X25710000Y-90654000D03*
X33330000Y-90654000D03*
X25710000Y-83034000D03*
X25710000Y-72874000D03*
X33330000Y-72874000D03*
G36*
G01*
X33457000Y-24995000D02*
X33457000Y-24233000D01*
G75*
G02*
X33838000Y-23852000I381000J0D01*
G01*
X34600000Y-23852000D01*
G75*
G02*
X34981000Y-24233000I0J-381000D01*
G01*
X34981000Y-24995000D01*
G75*
G02*
X34600000Y-25376000I-381000J0D01*
G01*
X33838000Y-25376000D01*
G75*
G02*
X33457000Y-24995000I0J381000D01*
G01*
G37*
D12*
X36759000Y-24614000D03*
X39299000Y-24614000D03*
X44379000Y-24614000D03*
X46919000Y-24614000D03*
X49459000Y-24614000D03*
X51999000Y-24614000D03*
D13*
X118420000Y-57824500D03*
D14*
X118420000Y-55284500D03*
D13*
X115118000Y-57824500D03*
D14*
X115118000Y-55284500D03*
D13*
X111816000Y-57824500D03*
D14*
X111816000Y-55284500D03*
D13*
X108514000Y-57824500D03*
D14*
X108514000Y-55284500D03*
D13*
X105212000Y-57824500D03*
D14*
X105212000Y-55284500D03*
D13*
X101910000Y-57824500D03*
D14*
X101910000Y-55284500D03*
D13*
X98608000Y-57824500D03*
D14*
X98608000Y-55284500D03*
D13*
X95306000Y-57824500D03*
D14*
X95306000Y-55284500D03*
D13*
X92004000Y-57824500D03*
D14*
X92004000Y-55284500D03*
D13*
X43998000Y-38203000D03*
D14*
X43998000Y-40743000D03*
D15*
X118420000Y-50014000D03*
D16*
X118420000Y-52554000D03*
D14*
X68128000Y-24328000D03*
D17*
X68128000Y-22328000D03*
D12*
X62714000Y-24821000D03*
X57714000Y-24821000D03*
X62714000Y-29821000D03*
X57714000Y-29821000D03*
D14*
X68001000Y-55380000D03*
D17*
X68001000Y-57380000D03*
D14*
X29520000Y-45664000D03*
D17*
X29520000Y-43664000D03*
D14*
X117499000Y-68556000D03*
D17*
X115499000Y-68556000D03*
D14*
X88861000Y-64365000D03*
D17*
X90861000Y-64365000D03*
D14*
X84479000Y-68556000D03*
D17*
X82479000Y-68556000D03*
D14*
X55841000Y-64365000D03*
D17*
X57841000Y-64365000D03*
D14*
X92766000Y-40457000D03*
D17*
X92766000Y-38457000D03*
D14*
X24457214Y-65017214D03*
D18*
G36*
X21911629Y-63603000D02*
G01*
X23043000Y-62471629D01*
X24174371Y-63603000D01*
X23043000Y-64734371D01*
X21911629Y-63603000D01*
G37*
D14*
X51459000Y-68556000D03*
D17*
X49459000Y-68556000D03*
D19*
X72446000Y-57380000D03*
X87686000Y-24360000D03*
X72446000Y-54840000D03*
X87686000Y-26900000D03*
X72446000Y-52300000D03*
X87686000Y-29440000D03*
X72446000Y-49760000D03*
X87686000Y-31980000D03*
X72446000Y-47220000D03*
X87686000Y-34520000D03*
X72446000Y-44680000D03*
X87686000Y-37060000D03*
X72446000Y-42140000D03*
X87686000Y-39600000D03*
X72446000Y-39600000D03*
X87686000Y-42140000D03*
X72446000Y-37060000D03*
X87686000Y-44680000D03*
X72446000Y-34520000D03*
X87686000Y-47220000D03*
X72446000Y-31980000D03*
X87686000Y-49760000D03*
X72446000Y-29440000D03*
X87686000Y-52300000D03*
X72446000Y-26900000D03*
X87686000Y-54840000D03*
X72446000Y-24360000D03*
D20*
X87686000Y-57380000D03*
D13*
X93528000Y-24360000D03*
X111308000Y-31980000D03*
X96068000Y-24360000D03*
X108768000Y-31980000D03*
X98608000Y-24360000D03*
X106228000Y-31980000D03*
X101148000Y-24360000D03*
X103688000Y-31980000D03*
X103688000Y-24360000D03*
X101148000Y-31980000D03*
X106228000Y-24360000D03*
X98608000Y-31980000D03*
X108768000Y-24360000D03*
X96068000Y-31980000D03*
X111308000Y-24360000D03*
D17*
X93528000Y-31980000D03*
D15*
X115118000Y-50014000D03*
D16*
X115118000Y-52554000D03*
D15*
X111816000Y-50014000D03*
D16*
X111816000Y-52554000D03*
D13*
X112070000Y-70334000D03*
X94290000Y-62714000D03*
X109530000Y-70334000D03*
X96830000Y-62714000D03*
X106990000Y-70334000D03*
X99370000Y-62714000D03*
X104450000Y-70334000D03*
X101910000Y-62714000D03*
X101910000Y-70334000D03*
X104450000Y-62714000D03*
X99370000Y-70334000D03*
X106990000Y-62714000D03*
X96830000Y-70334000D03*
X109530000Y-62714000D03*
X94290000Y-70334000D03*
D17*
X112070000Y-62714000D03*
D13*
X79050000Y-70334000D03*
X61270000Y-62714000D03*
X76510000Y-70334000D03*
X63810000Y-62714000D03*
X73970000Y-70334000D03*
X66350000Y-62714000D03*
X71430000Y-70334000D03*
X68890000Y-62714000D03*
X68890000Y-70334000D03*
X71430000Y-62714000D03*
X66350000Y-70334000D03*
X73970000Y-62714000D03*
X63810000Y-70334000D03*
X76510000Y-62714000D03*
X61270000Y-70334000D03*
D17*
X79050000Y-62714000D03*
D21*
X97211000Y-38457000D03*
X114991000Y-46077000D03*
X99751000Y-38457000D03*
X112451000Y-46077000D03*
X102291000Y-38457000D03*
X109911000Y-46077000D03*
X104831000Y-38457000D03*
X107371000Y-46077000D03*
X107371000Y-38457000D03*
X104831000Y-46077000D03*
X109911000Y-38457000D03*
X102291000Y-46077000D03*
X112451000Y-38457000D03*
X99751000Y-46077000D03*
X114991000Y-38457000D03*
D22*
X97211000Y-46077000D03*
D15*
X108514000Y-50014000D03*
D16*
X108514000Y-52554000D03*
D15*
X105212000Y-50014000D03*
D16*
X105212000Y-52554000D03*
D19*
X41204000Y-32361000D03*
X33584000Y-34901000D03*
X41204000Y-34901000D03*
D20*
X33584000Y-32361000D03*
D23*
X24000000Y-27000000D03*
D24*
X24000000Y-27000000D03*
D23*
X116000000Y-27000000D03*
D24*
X116000000Y-27000000D03*
D13*
X46030000Y-70334000D03*
X28250000Y-62714000D03*
X43490000Y-70334000D03*
X30790000Y-62714000D03*
X40950000Y-70334000D03*
X33330000Y-62714000D03*
X38410000Y-70334000D03*
X35870000Y-62714000D03*
X35870000Y-70334000D03*
X38410000Y-62714000D03*
X33330000Y-70334000D03*
X40950000Y-62714000D03*
X30790000Y-70334000D03*
X43490000Y-62714000D03*
X28250000Y-70334000D03*
D17*
X46030000Y-62714000D03*
D15*
X101910000Y-50014000D03*
D16*
X101910000Y-52554000D03*
D15*
X98608000Y-50014000D03*
D16*
X98608000Y-52554000D03*
D15*
X95306000Y-50014000D03*
D16*
X95306000Y-52554000D03*
D15*
X92004000Y-50014000D03*
D16*
X92004000Y-52554000D03*
D13*
X41204000Y-38203000D03*
X33584000Y-45823000D03*
X41204000Y-40743000D03*
X33584000Y-43283000D03*
X41204000Y-43283000D03*
X33584000Y-40743000D03*
X41204000Y-45823000D03*
D17*
X33584000Y-38203000D03*
D25*
X24059000Y-42521000D03*
X24059000Y-39981000D03*
X24059000Y-37441000D03*
X24059000Y-34901000D03*
D26*
X24059000Y-32361000D03*
D13*
X30536000Y-32996000D03*
D14*
X30536000Y-40616000D03*
D25*
X25390000Y-22074000D03*
D26*
X22850000Y-22074000D03*
D27*
X29530000Y-22201000D03*
X29520000Y-27281000D03*
M02*
