M48
; DRILL file {KiCad 5.1.10-88a1d61d58~90~ubuntu20.04.1} date Mon Nov  7 14:46:38 2022
; FORMAT={-:-/ absolute / inch / decimal}
; #@! TF.CreationDate,2022-11-07T14:46:38+00:00
; #@! TF.GenerationSoftware,Kicad,Pcbnew,5.1.10-88a1d61d58~90~ubuntu20.04.1
FMAT,2
INCH
T1C0.0157
T2C0.0300
T3C0.0315
T4C0.0354
T5C0.0394
T6C0.0512
T7C0.0591
T8C0.1260
%
G90
G05
T1
X0.8572Y-1.5741
X0.8572Y-1.6741
X0.9572Y-2.9591
X1.0122Y-3.1641
X1.0522Y-2.3341
X1.0722Y-0.8391
X1.0872Y-1.4041
X1.0872Y-1.4891
X1.2172Y-1.4041
X1.2172Y-1.4891
X1.2372Y-1.7991
X1.4022Y-1.7341
X1.4872Y-1.2791
X1.5122Y-2.5991
X1.5722Y-0.8491
X1.6122Y-3.1641
X1.7072Y-1.2741
X1.7072Y-1.3741
X1.8122Y-2.3691
X2.0622Y-2.9641
X2.1722Y-2.9641
X2.3122Y-3.1641
X2.3372Y-2.6741
X2.3572Y-2.4041
X2.3572Y-2.5541
X2.4222Y-2.6391
X2.4672Y-2.5991
X2.5122Y-2.6391
X2.5572Y-2.5991
X2.7122Y-1.6591
X2.9122Y-1.2091
X2.9122Y-1.3091
X2.9122Y-1.4091
X2.9122Y-1.5091
X2.9122Y-1.8091
X2.9122Y-1.9091
X2.9122Y-3.1641
X2.9172Y-1.0091
X3.0122Y-2.3341
X3.0522Y-2.3691
X3.0922Y-2.4041
X3.1722Y-2.3691
X3.2022Y-2.4691
X3.2122Y-2.3341
X3.2522Y-2.5991
X3.2922Y-2.6391
X3.3522Y-2.9541
X3.4722Y-2.9541
X3.6172Y-3.1641
X3.6322Y-2.6741
X3.6522Y-2.5541
X3.7272Y-1.8291
X3.7422Y-1.5991
X3.7422Y-2.6391
X3.7447Y-1.4491
X3.7772Y-2.5991
X3.8122Y-2.6391
X3.8272Y-1.9041
X3.8472Y-2.5991
X3.9272Y-1.9041
X3.9322Y-1.3041
X4.0322Y-1.3041
X4.0572Y-1.9041
X4.1322Y-1.3041
X4.2122Y-1.9041
X4.2122Y-3.1641
X4.2322Y-1.3041
X4.3322Y-1.3041
X4.3472Y-1.9041
X4.4572Y-1.9041
X4.5822Y-2.9491
T2
X1.3472Y-0.9691
X1.4472Y-0.9691
X1.5472Y-0.9691
X1.7472Y-0.9691
X1.8472Y-0.9691
X1.9472Y-0.9691
X2.0472Y-0.9691
X2.2722Y-0.9772
X2.2722Y-1.1741
X2.4691Y-0.9772
X2.4691Y-1.1741
T3
X0.9072Y-2.5041
X0.9629Y-2.5597
X1.1122Y-2.4691
X1.1122Y-2.7691
X1.1622Y-1.7191
X1.1622Y-1.7978
X1.2022Y-1.2991
X1.2022Y-1.5991
X1.2122Y-2.4691
X1.2122Y-2.7691
X1.3122Y-2.4691
X1.3122Y-2.7691
X1.3222Y-1.2741
X1.3222Y-1.3741
X1.3222Y-1.5041
X1.3222Y-1.6041
X1.3222Y-1.7041
X1.3222Y-1.8041
X1.4122Y-2.4691
X1.4122Y-2.7691
X1.5122Y-2.4691
X1.5122Y-2.7691
X1.6122Y-2.4691
X1.6122Y-2.7691
X1.6222Y-1.2741
X1.6222Y-1.3741
X1.6222Y-1.5041
X1.6222Y-1.6041
X1.6222Y-1.7041
X1.6222Y-1.8041
X1.7122Y-2.4691
X1.7122Y-2.7691
X1.7322Y-1.5041
X1.7322Y-1.6041
X1.8122Y-2.4691
X1.8122Y-2.7691
X1.9472Y-2.6991
X2.0259Y-2.6991
X2.1985Y-2.5341
X2.2772Y-2.5341
X2.4122Y-2.4691
X2.4122Y-2.7691
X2.5122Y-2.4691
X2.5122Y-2.7691
X2.6122Y-2.4691
X2.6122Y-2.7691
X2.6772Y-2.1803
X2.6772Y-2.2591
X2.6822Y-0.8791
X2.6822Y-0.9578
X2.7122Y-2.4691
X2.7122Y-2.7691
X2.8122Y-2.4691
X2.8122Y-2.7691
X2.8522Y-0.9591
X2.8522Y-1.0591
X2.8522Y-1.1591
X2.8522Y-1.2591
X2.8522Y-1.3591
X2.8522Y-1.4591
X2.8522Y-1.5591
X2.8522Y-1.6591
X2.8522Y-1.7591
X2.8522Y-1.8591
X2.8522Y-1.9591
X2.8522Y-2.0591
X2.8522Y-2.1591
X2.8522Y-2.2591
X2.9122Y-2.4691
X2.9122Y-2.7691
X3.0122Y-2.4691
X3.0122Y-2.7691
X3.1122Y-2.4691
X3.1122Y-2.7691
X3.2472Y-2.6991
X3.3259Y-2.6991
X3.4522Y-0.9591
X3.4522Y-1.0591
X3.4522Y-1.1591
X3.4522Y-1.2591
X3.4522Y-1.3591
X3.4522Y-1.4591
X3.4522Y-1.5591
X3.4522Y-1.6591
X3.4522Y-1.7591
X3.4522Y-1.8591
X3.4522Y-1.9591
X3.4522Y-2.0591
X3.4522Y-2.1591
X3.4522Y-2.2591
X3.4985Y-2.5341
X3.5772Y-2.5341
X3.6222Y-2.1766
X3.6222Y-2.2766
X3.6522Y-1.5141
X3.6522Y-1.5928
X3.6822Y-0.9591
X3.6822Y-1.2591
X3.7122Y-2.4691
X3.7122Y-2.7691
X3.7522Y-2.1766
X3.7522Y-2.2766
X3.7822Y-0.9591
X3.7822Y-1.2591
X3.8122Y-2.4691
X3.8122Y-2.7691
X3.8272Y-1.5141
X3.8272Y-1.8141
X3.8822Y-0.9591
X3.8822Y-1.2591
X3.8822Y-2.1766
X3.8822Y-2.2766
X3.9122Y-2.4691
X3.9122Y-2.7691
X3.9272Y-1.5141
X3.9272Y-1.8141
X3.9822Y-0.9591
X3.9822Y-1.2591
X4.0122Y-2.1766
X4.0122Y-2.2766
X4.0122Y-2.4691
X4.0122Y-2.7691
X4.0272Y-1.5141
X4.0272Y-1.8141
X4.0822Y-0.9591
X4.0822Y-1.2591
X4.1122Y-2.4691
X4.1122Y-2.7691
X4.1272Y-1.5141
X4.1272Y-1.8141
X4.1422Y-2.1766
X4.1422Y-2.2766
X4.1822Y-0.9591
X4.1822Y-1.2591
X4.2122Y-2.4691
X4.2122Y-2.7691
X4.2272Y-1.5141
X4.2272Y-1.8141
X4.2722Y-2.1766
X4.2722Y-2.2766
X4.2822Y-0.9591
X4.2822Y-1.2591
X4.3122Y-2.4691
X4.3122Y-2.7691
X4.3272Y-1.5141
X4.3272Y-1.8141
X4.3822Y-0.9591
X4.3822Y-1.2591
X4.4022Y-2.1766
X4.4022Y-2.2766
X4.4122Y-2.4691
X4.4122Y-2.7691
X4.4272Y-1.5141
X4.4272Y-1.8141
X4.5272Y-1.5141
X4.5272Y-1.8141
X4.5322Y-2.1766
X4.5322Y-2.2766
X4.5472Y-2.6991
X4.6259Y-2.6991
X4.6622Y-2.1766
X4.6622Y-2.2766
T4
X3.6222Y-1.9691
X3.6222Y-2.0691
X3.7522Y-1.9691
X3.7522Y-2.0691
X3.8822Y-1.9691
X3.8822Y-2.0691
X4.0122Y-1.9691
X4.0122Y-2.0691
X4.1422Y-1.9691
X4.1422Y-2.0691
X4.2722Y-1.9691
X4.2722Y-2.0691
X4.4022Y-1.9691
X4.4022Y-2.0691
X4.5322Y-1.9691
X4.5322Y-2.0691
X4.6622Y-1.9691
X4.6622Y-2.0691
T5
X0.8996Y-0.8691
X0.9472Y-1.2741
X0.9472Y-1.3741
X0.9472Y-1.4741
X0.9472Y-1.5741
X0.9472Y-1.6741
X0.9996Y-0.8691
X1.1622Y-1.0741
X1.1626Y-0.8741
T6
X0.9646Y-3.7141
X1.1614Y-3.7141
X1.3583Y-3.7141
X1.6024Y-3.7141
X1.7992Y-3.7141
X1.9961Y-3.7141
X2.2411Y-3.7141
X2.438Y-3.7141
X2.6348Y-3.7141
X2.878Y-3.7141
X3.0748Y-3.7141
X3.2717Y-3.7141
X3.5157Y-3.7141
X3.7126Y-3.7141
X3.9094Y-3.7141
X4.1535Y-3.7141
X4.3504Y-3.7141
X4.5472Y-3.7141
T7
X1.0122Y-2.8691
X1.0122Y-3.2691
X1.0122Y-3.5691
X1.3122Y-2.8691
X1.3122Y-3.5691
X1.6496Y-2.8691
X1.6496Y-3.2691
X1.6496Y-3.5691
X1.9496Y-2.8691
X1.9496Y-3.5691
X2.2874Y-2.8691
X2.2874Y-3.2691
X2.2874Y-3.5691
X2.5874Y-2.8691
X2.5874Y-3.5691
X2.9252Y-2.8669
X2.9252Y-3.2669
X2.9252Y-3.5669
X3.2252Y-2.8669
X3.2252Y-3.5669
X3.563Y-2.8691
X3.563Y-3.2691
X3.563Y-3.5691
X3.863Y-2.8691
X3.863Y-3.5691
X4.2008Y-2.8691
X4.2008Y-3.2691
X4.2008Y-3.5691
X4.5008Y-2.8691
X4.5008Y-3.5691
T8
X0.9449Y-1.063
X4.5669Y-1.063
T0
M30
